<!--?xml version="1.0" encoding="utf-8"?-->
<!-- Generator: Adobe Illustrator 18.1.1, SVG Export Plug-In . SVG Version: 6.00 Build 0)  -->

<svg version="1.1" id="_x32_" xmlns="http://www.w3.org/2000/svg" xmlns:xlink="http://www.w3.org/1999/xlink" x="0px" y="0px" viewBox="0 0 512 512" style="width: 256px; height: 256px; opacity: 1;" xml:space="preserve">
<style type="text/css">
	.st0{fill:#4B4B4B;}
</style>
<g>
	<polygon class="st0" points="327.41,157.358 256.009,228.759 184.608,157.358 157.366,184.591 228.776,256.009 157.366,327.409 
		184.608,354.651 256.009,283.233 327.41,354.651 354.651,327.409 283.242,256.009 354.651,184.591 	" style="fill: rgb(85, 85, 85);"></polygon>
	<path class="st0" d="M437.022,74.978C390.764,28.686,326.636-0.008,256.009,0C185.372-0.008,121.245,28.686,74.987,74.978
		C28.686,121.236-0.008,185.372,0,256c-0.008,70.628,28.686,134.764,74.987,181.022c46.258,46.292,110.385,74.995,181.022,74.978
		c70.628,0.016,134.755-28.686,181.013-74.978C483.322,390.764,512.018,326.628,512,256
		C512.018,185.372,483.322,121.236,437.022,74.978z M408.344,408.335c-39.052,39.019-92.787,63.1-152.335,63.116
		c-59.564-0.016-113.292-24.098-152.353-63.116C64.646,369.283,40.566,315.564,40.557,256c0.009-59.564,24.089-113.3,63.099-152.344
		c39.061-39.027,92.788-63.091,152.353-63.099c59.548,0.008,113.283,24.072,152.335,63.099
		c39.019,39.044,63.091,92.78,63.108,152.344C471.435,315.564,447.363,369.283,408.344,408.335z" style="fill: rgb(85, 85, 85);"></path>
</g>
</svg>
